<svg id="ac1e22b8-deda-4e38-9b24-3546d7fb4797" data-name="圖層 1" xmlns="http://www.w3.org/2000/svg" viewBox="0 0 14.49 8.32"><path d="M7.54,9.05h1s.05,0,.05,0a4.07,4.07,0,0,1,0,.5c0,.11,0,.22,0,.34s-.05.36-.07.54a2,2,0,0,1-.36.85,2.8,2.8,0,0,1-.89.79,3.24,3.24,0,0,1-.8.31A4.43,4.43,0,0,1,6,12.5a2.11,2.11,0,0,1-.83-.15A1.79,1.79,0,0,1,4.57,12s0,0,0,0a2.41,2.41,0,0,1-1,.44,2.58,2.58,0,0,1-.38,0A2.32,2.32,0,0,1,2,12.23a2,2,0,0,1-.84-.82,3.77,3.77,0,0,1-.34-.8A3.55,3.55,0,0,1,.68,10,3.29,3.29,0,0,1,.94,8.32a4.85,4.85,0,0,1,.74-1.24c.14-.17.29-.34.45-.5A8.08,8.08,0,0,1,3,5.86a9.71,9.71,0,0,1,1.22-.78,2.92,2.92,0,0,0,.54-.38l.53-.48s0,0,.07,0A5.59,5.59,0,0,0,6,4.75c.32.22.65.42,1,.63l.15.11s0,0,0,0A2.91,2.91,0,0,0,7,6.15c0,.15,0,.31-.07.46s0,.07,0,.11,0,0,0,0l-.22-.16A7,7,0,0,0,6,6.18l-.6-.34a.06.06,0,0,0-.06,0c-.39.28-.8.55-1.18.84a5.43,5.43,0,0,0-.68.59,5.76,5.76,0,0,0-.9,1.18,5,5,0,0,0-.31.61,1.05,1.05,0,0,0-.08.35,1.86,1.86,0,0,0,.19,1,1.34,1.34,0,0,0,.51.59,1,1,0,0,0,.58.11,1.61,1.61,0,0,0,.74-.3,3.47,3.47,0,0,0,.42-.34s0,0,0,0a1.09,1.09,0,0,0,.85.79,1.4,1.4,0,0,0,1.39-.41,1.36,1.36,0,0,0,.34-.69,2.85,2.85,0,0,0,0-.65c0-.14,0-.27,0-.4s0,0,0,0Z" transform="translate(-0.66 -4.17)" style="fill:#979694"/><path d="M9,9.9l.22.16c.29.2.6.38.91.56l.42.24a0,0,0,0,0,.05,0c.39-.28.79-.54,1.17-.83a6.53,6.53,0,0,0,.94-.88,5.82,5.82,0,0,0,.72-1.06,2.74,2.74,0,0,0,.21-.42,1.22,1.22,0,0,0,.11-.59,2.19,2.19,0,0,0-.16-.67,1.5,1.5,0,0,0-.49-.65.94.94,0,0,0-.65-.19,1.26,1.26,0,0,0-.54.16,2.75,2.75,0,0,0-.61.45l-.06.07a.07.07,0,0,1,0-.06,1,1,0,0,0-.59-.6,1.42,1.42,0,0,0-1.49.23,1.17,1.17,0,0,0-.4.57,2,2,0,0,0-.07.35,3.4,3.4,0,0,0,0,.71.76.76,0,0,0,0,.15s0,0,0,0H7.3s0,0,0,0a4.57,4.57,0,0,1,0-.74c0-.25.06-.5.11-.75a1.88,1.88,0,0,1,.3-.73,2.65,2.65,0,0,1,1-.91,2.53,2.53,0,0,1,.88-.29A2,2,0,0,1,11,4.49a1.57,1.57,0,0,1,.21.17s0,0,.05,0a2.39,2.39,0,0,1,1-.43,2.49,2.49,0,0,1,.86,0,2.37,2.37,0,0,1,1.11.49A1.52,1.52,0,0,1,14.5,5a4.12,4.12,0,0,1,.39.63,3,3,0,0,1,.24.83A3.53,3.53,0,0,1,15,8.08a5.26,5.26,0,0,1-.7,1.3,7,7,0,0,1-1.2,1.3,8.49,8.49,0,0,1-1.21.85l-.34.19a5.32,5.32,0,0,0-.46.37c-.15.13-.29.27-.44.39s0,0,0,0a7.29,7.29,0,0,0-1-.74c-.28-.17-.55-.34-.81-.53,0,0,0,0,0-.05a5.18,5.18,0,0,0,.2-.95c0-.1,0-.19,0-.29Z" transform="translate(-0.66 -4.17)" style="fill:#dd755d"/><path d="M6.53,9H5.91s0,0,0,0V7.74s0,0,0,0H7.16s0,0,0,0V9s0,0,0,0Z" transform="translate(-0.66 -4.17)" style="fill:#dd755d"/><path d="M9.28,7.7H9.9s0,0,0,0V9s0,0,0,0H8.65s0,0,0,0V7.74s0,0,0,0Z" transform="translate(-0.66 -4.17)" style="fill:#979694"/></svg>