<svg id="a15cad54-6ad4-4182-b022-d239c81e4dcf" data-name="圖層 1" xmlns="http://www.w3.org/2000/svg" viewBox="0 0 120.79 106.15"><path d="M65.28,79.8H5.16c-.25,0-.27-.07-.27-.28V7c0-.25.07-.27.28-.27H125.41c.24,0,.27.08.27.29q0,36.27,0,72.53c0,.24-.07.27-.28.27ZM62.4,48.86H60.19c-.17,0-.21,0-.2.21.07,1,.13,2.11.17,3.17A21.66,21.66,0,0,1,60,55.75a16.69,16.69,0,0,1-.58,3.06,10.86,10.86,0,0,1-5.28,6.38,11.38,11.38,0,0,1-7.48,1.25A9.49,9.49,0,0,1,41.58,64a8.67,8.67,0,0,1-2.38-4c-.05-.18-.09-.28-.26-.09a4.26,4.26,0,0,1-.38.35,23.79,23.79,0,0,1-4,3.07,11.76,11.76,0,0,1-5.05,1.77,7.64,7.64,0,0,1-6.35-2.46,11.9,11.9,0,0,1-2.59-4.1,15.36,15.36,0,0,1-1.09-6.87,8.81,8.81,0,0,1,.65-2.87C20.7,47.49,21.35,46.24,22,45a44.66,44.66,0,0,1,8.18-10.85,57.62,57.62,0,0,1,5.19-4.44c3-2.28,6.14-4.35,9.24-6.49a.32.32,0,0,1,.39,0c.64.37,1.28.74,1.93,1.1,1.87,1.05,3.76,2.06,5.6,3.16a42.87,42.87,0,0,1,4.23,2.85c.05.05.11.15.2.1s0-.13,0-.2c.13-1,.24-2,.39-3A30.18,30.18,0,0,1,59,20.75a.21.21,0,0,0-.1-.31c-.4-.26-.79-.55-1.19-.81-2.52-1.66-5.06-3.3-7.57-5a40,40,0,0,1-5.43-4.27c-.2-.2-.31-.17-.51,0-1.45,1.21-2.82,2.51-4.25,3.76a23.82,23.82,0,0,1-3.24,2.49c-1.3.79-2.67,1.46-4,2.23A66.65,66.65,0,0,0,19.43,29a50.89,50.89,0,0,0-3.74,4.16,39.37,39.37,0,0,0-6,9.93,27.86,27.86,0,0,0-2.12,12.2,27.09,27.09,0,0,0,.76,4.92,31.26,31.26,0,0,0,3.07,7.56,15.5,15.5,0,0,0,6.6,6.4,18.67,18.67,0,0,0,9.51,2.06,19,19,0,0,0,3-.36,19.73,19.73,0,0,0,7.82-3.45.24.24,0,0,1,.37,0,14.37,14.37,0,0,0,3.52,2.36,17.08,17.08,0,0,0,9.61,1.41A21.67,21.67,0,0,0,57,74.92,23.4,23.4,0,0,0,64.85,70a18.88,18.88,0,0,0,3.62-4.68A15.14,15.14,0,0,0,70.07,61c.24-1.28.42-2.57.57-3.86a25.63,25.63,0,0,0,.22-3.81c0-1.27-.11-2.53-.24-3.79-.07-.64,0-.56-.61-.56C67.37,48.91,64.73,48.92,62.4,48.86Zm11.26,6.75c0,.11,0,.17,0,.24-.06,1.18-.16,2.36-.33,3.53a37.62,37.62,0,0,1-1.45,6.3.29.29,0,0,0,.15.41c2.12,1.47,4.3,2.84,6.47,4.24a52.47,52.47,0,0,1,7.93,5.9c.14.14.23.1.36,0,1.21-1,2.37-2.06,3.54-3.11a34.15,34.15,0,0,1,3.57-2.89c.88-.6,1.84-1.07,2.77-1.6a63.26,63.26,0,0,0,9.65-6.75A58,58,0,0,0,115,52.74a43.1,43.1,0,0,0,6.17-10.89,29.46,29.46,0,0,0,1.91-8.94,23.78,23.78,0,0,0-.18-4.3,23.19,23.19,0,0,0-2-6.83,30.8,30.8,0,0,0-2.47-4.18,15.35,15.35,0,0,0-3.61-3.8,19.16,19.16,0,0,0-14.5-3.52,18.45,18.45,0,0,0-8.55,3.56c-.17.12-.27.13-.43,0A15,15,0,0,0,81.93,10a17.48,17.48,0,0,0-5.09.46A22.11,22.11,0,0,0,64.61,18,16.67,16.67,0,0,0,61,25.24a55.42,55.42,0,0,0-.91,6.16,31.75,31.75,0,0,0,.06,5.93c0,.39,0,.39.41.39l6.54,0h3.34c.17,0,.23,0,.21-.22,0-.42-.05-.85-.06-1.28A26.79,26.79,0,0,1,71,30.25a18.66,18.66,0,0,1,.57-2.59,9.64,9.64,0,0,1,2.87-4.25,11.44,11.44,0,0,1,11.81-2.22,7.89,7.89,0,0,1,5,5,1.23,1.23,0,0,0,.17.4,24.62,24.62,0,0,1,2.29-2.06,15.38,15.38,0,0,1,5.41-3,8,8,0,0,1,5.92.44,9.94,9.94,0,0,1,4.18,4,14.92,14.92,0,0,1,2.17,8.86,8,8,0,0,1-.66,2.84q-1.08,2.33-2.35,4.58a45.47,45.47,0,0,1-6.6,9,52.72,52.72,0,0,1-6.11,5.46c-3,2.33-6.22,4.45-9.37,6.63a.32.32,0,0,1-.37,0c-.76-.45-1.53-.89-2.3-1.33-2.57-1.48-5.14-3-7.6-4.62C75.28,56.83,74.48,56.24,73.66,55.61ZM54.37,48.54h5c.19,0,.28,0,.28-.25q0-5,0-9.93c0-.2,0-.26-.25-.26h-10c-.21,0-.27.06-.27.27q0,5,0,9.9c0,.22.06.28.27.28ZM76.26,38.11h-5c-.22,0-.29,0-.29.28q0,4.95,0,9.88c0,.23.07.29.29.29h10c.22,0,.29,0,.29-.28V38.38c0-.23-.06-.28-.29-.28Z" transform="translate(-4.89 -6.72)" style="fill:#fff"/><path d="M62.4,48.86c2.33.06,5,0,7.61.08.65,0,.54-.08.61.56.13,1.26.21,2.52.24,3.79a25.63,25.63,0,0,1-.22,3.81c-.15,1.29-.33,2.58-.57,3.86a15.14,15.14,0,0,1-1.6,4.36A18.88,18.88,0,0,1,64.85,70,23.4,23.4,0,0,1,57,74.92a21.67,21.67,0,0,1-5.13,1.28,17.08,17.08,0,0,1-9.61-1.41,14.37,14.37,0,0,1-3.52-2.36.24.24,0,0,0-.37,0,19.73,19.73,0,0,1-7.82,3.45,19,19,0,0,1-3,.36A18.67,18.67,0,0,1,18,74.17a15.5,15.5,0,0,1-6.6-6.4,31.26,31.26,0,0,1-3.07-7.56,27.09,27.09,0,0,1-.76-4.92,27.86,27.86,0,0,1,2.12-12.2,39.37,39.37,0,0,1,6-9.93A50.89,50.89,0,0,1,19.43,29,66.65,66.65,0,0,1,32.72,18.85c1.3-.77,2.67-1.44,4-2.23a23.82,23.82,0,0,0,3.24-2.49c1.43-1.25,2.8-2.55,4.25-3.76.2-.16.31-.19.51,0a40,40,0,0,0,5.43,4.27c2.51,1.68,5.05,3.32,7.57,5,.4.26.79.55,1.19.81a.21.21,0,0,1,.1.31,30.18,30.18,0,0,0-1.56,6.43c-.15,1-.26,2-.39,3,0,.07,0,.16,0,.2s-.15-.05-.2-.1a42.87,42.87,0,0,0-4.23-2.85c-1.84-1.1-3.73-2.11-5.6-3.16-.65-.36-1.29-.73-1.93-1.1a.32.32,0,0,0-.39,0c-3.1,2.14-6.24,4.21-9.24,6.49a57.62,57.62,0,0,0-5.19,4.44A44.66,44.66,0,0,0,22,45c-.68,1.24-1.33,2.49-1.89,3.78a8.81,8.81,0,0,0-.65,2.87,15.36,15.36,0,0,0,1.09,6.87,11.9,11.9,0,0,0,2.59,4.1,7.64,7.64,0,0,0,6.35,2.46,11.76,11.76,0,0,0,5.05-1.77,23.79,23.79,0,0,0,4-3.07,4.26,4.26,0,0,0,.38-.35c.17-.19.21-.09.26.09a8.67,8.67,0,0,0,2.38,4,9.49,9.49,0,0,0,5.09,2.49,11.38,11.38,0,0,0,7.48-1.25,10.86,10.86,0,0,0,5.28-6.38A16.69,16.69,0,0,0,60,55.75a21.66,21.66,0,0,0,.15-3.51c0-1.06-.1-2.12-.17-3.17,0-.18,0-.22.2-.21Z" transform="translate(-4.89 -6.72)" style="fill:#969594"/><path d="M73.66,55.61c.82.63,1.62,1.22,2.43,1.77,2.46,1.66,5,3.14,7.6,4.62.77.44,1.54.88,2.3,1.33a.32.32,0,0,0,.37,0c3.15-2.18,6.34-4.3,9.37-6.63a52.72,52.72,0,0,0,6.11-5.46,45.47,45.47,0,0,0,6.6-9q1.28-2.25,2.35-4.58a8,8,0,0,0,.66-2.84A14.92,14.92,0,0,0,109.28,26a9.94,9.94,0,0,0-4.18-4,8,8,0,0,0-5.92-.44,15.38,15.38,0,0,0-5.41,3,24.62,24.62,0,0,0-2.29,2.06,1.23,1.23,0,0,1-.17-.4,7.89,7.89,0,0,0-5-5,11.44,11.44,0,0,0-11.81,2.22,9.64,9.64,0,0,0-2.87,4.25A18.66,18.66,0,0,0,71,30.25a26.79,26.79,0,0,0-.42,5.93c0,.43,0,.86.06,1.28,0,.19,0,.22-.21.22H67.13l-6.54,0c-.38,0-.37,0-.41-.39a31.75,31.75,0,0,1-.06-5.93A55.42,55.42,0,0,1,61,25.24,16.67,16.67,0,0,1,64.61,18a22.11,22.11,0,0,1,12.23-7.57A17.48,17.48,0,0,1,81.93,10a15,15,0,0,1,9.41,3.82c.16.15.26.14.43,0a18.45,18.45,0,0,1,8.55-3.56,19.16,19.16,0,0,1,14.5,3.52,15.35,15.35,0,0,1,3.61,3.8,30.8,30.8,0,0,1,2.47,4.18,23.19,23.19,0,0,1,2,6.83,23.78,23.78,0,0,1,.18,4.3,29.46,29.46,0,0,1-1.91,8.94A43.1,43.1,0,0,1,115,52.74a58,58,0,0,1-8.72,9.13,63.26,63.26,0,0,1-9.65,6.75c-.93.53-1.89,1-2.77,1.6a34.15,34.15,0,0,0-3.57,2.89c-1.17,1-2.33,2.11-3.54,3.11-.13.11-.22.15-.36,0a52.47,52.47,0,0,0-7.93-5.9c-2.17-1.4-4.35-2.77-6.47-4.24a.29.29,0,0,1-.15-.41,37.62,37.62,0,0,0,1.45-6.3c.17-1.17.27-2.35.33-3.53C73.64,55.78,73.65,55.72,73.66,55.61Z" transform="translate(-4.89 -6.72)" style="fill:#dc755d"/><path d="M54.37,48.54h-5c-.21,0-.27-.06-.27-.28q0-5,0-9.9c0-.21.06-.27.27-.27h10c.2,0,.25.06.25.26q0,5,0,9.93c0,.23-.09.26-.28.25Z" transform="translate(-4.89 -6.72)" style="fill:#dc755d"/><path d="M76.26,38.11h5c.23,0,.29,0,.29.28v9.88c0,.23-.07.29-.29.28h-10c-.22,0-.29-.06-.29-.29q0-4.93,0-9.88c0-.23.07-.28.29-.28Z" transform="translate(-4.89 -6.72)" style="fill:#969594"/><text transform="translate(26.33 84.28) scale(0.84 0.74)" style="font-size:9.253761291503906px;fill:#221714;font-family:jf-openhuninn-1.1">戴德森醫療財團法人</text><text transform="translate(5.48 98.61) scale(0.84 0.72)" style="font-size:18.507522583007812px;fill:#221714;font-family:jf-openhuninn-1.1">嘉義基督教醫院</text><path d="M24.85,112.7a3.32,3.32,0,0,1-1.13.17,2.07,2.07,0,0,1-2.32-2.14,2.22,2.22,0,0,1,2.44-2.24,2.53,2.53,0,0,1,1,.17l-.18.6a2.2,2.2,0,0,0-.82-.14,1.44,1.44,0,0,0-1.55,1.57,1.41,1.41,0,0,0,1.54,1.54,2.58,2.58,0,0,0,.85-.13Z" transform="translate(-4.89 -6.72)" style="fill:#221714"/><path d="M26.29,108.55v1.72h1.83v-1.72H29v4.26h-.88v-1.88H26.29v1.88h-.87v-4.26Z" transform="translate(-4.89 -6.72)" style="fill:#221714"/><path d="M31,108.55v4.26h-.87v-4.26Z" transform="translate(-4.89 -6.72)" style="fill:#221714"/><path d="M33,111.63l-.38,1.18h-.89l1.45-4.26H34.3l1.45,4.26h-.92l-.39-1.18Zm1.27-.57L34,110c-.09-.27-.17-.59-.23-.86h0c-.07.27-.15.6-.22.85l-.34,1Z" transform="translate(-4.89 -6.72)" style="fill:#221714"/><path d="M38,110.86v.52H36.23v-.52Z" transform="translate(-4.89 -6.72)" style="fill:#221714"/><path d="M39.5,112.81v-1.75l-1.43-2.51h1l.53,1.08c.15.3.27.57.4.87h0c.11-.29.24-.57.39-.88l.53-1.07h1L40.37,111v1.78Z" transform="translate(-4.89 -6.72)" style="fill:#221714"/><path d="M43.32,108.55v4.26h-.88v-4.26Z" transform="translate(-4.89 -6.72)" style="fill:#221714"/><path d="M49.18,112.7a3.21,3.21,0,0,1-1.12.17,2.07,2.07,0,0,1-2.32-2.14,2.21,2.21,0,0,1,2.44-2.24,2.61,2.61,0,0,1,1,.17l-.18.6a2.22,2.22,0,0,0-.83-.14,1.44,1.44,0,0,0-1.55,1.57,1.41,1.41,0,0,0,1.55,1.54,2.56,2.56,0,0,0,.84-.13Z" transform="translate(-4.89 -6.72)" style="fill:#221714"/><path d="M50.89,108.55v1.72h1.83v-1.72h.88v4.26h-.88v-1.88H50.89v1.88H50v-4.26Z" transform="translate(-4.89 -6.72)" style="fill:#221714"/><path d="M54.72,108.61a8.58,8.58,0,0,1,1.25-.09,2.39,2.39,0,0,1,1.45.34,1,1,0,0,1,.41.85,1.16,1.16,0,0,1-.87,1.07v0a1.06,1.06,0,0,1,.68.84,6.51,6.51,0,0,0,.37,1.17h-.9a4.89,4.89,0,0,1-.32-1c-.13-.55-.35-.73-.83-.74h-.37v1.76h-.87Zm.87,1.89H56c.57,0,.93-.29.93-.72s-.33-.68-.9-.69a2.15,2.15,0,0,0-.47,0Z" transform="translate(-4.89 -6.72)" style="fill:#221714"/><path d="M59.65,108.55v4.26h-.87v-4.26Z" transform="translate(-4.89 -6.72)" style="fill:#221714"/><path d="M60.73,112a2.57,2.57,0,0,0,1.08.24c.55,0,.86-.24.86-.58s-.25-.52-.82-.73c-.74-.27-1.23-.66-1.23-1.22s.64-1.22,1.68-1.22a2.64,2.64,0,0,1,1.06.2l-.2.61a2,2,0,0,0-.88-.19c-.54,0-.78.27-.78.52s.27.48.88.71c.8.31,1.17.69,1.17,1.26s-.62,1.27-1.79,1.27a2.88,2.88,0,0,1-1.21-.25Z" transform="translate(-4.89 -6.72)" style="fill:#221714"/><path d="M65.27,109.19H64v-.64h3.41v.64H66.15v3.62h-.88Z" transform="translate(-4.89 -6.72)" style="fill:#221714"/><path d="M69,108.55v4.26h-.88v-4.26Z" transform="translate(-4.89 -6.72)" style="fill:#221714"/><path d="M71,111.63l-.37,1.18h-.89l1.45-4.26H72.3l1.44,4.26h-.91l-.4-1.18Zm1.28-.57L72,110c-.08-.27-.16-.59-.23-.86h0c-.06.27-.14.6-.22.85l-.33,1Z" transform="translate(-4.89 -6.72)" style="fill:#221714"/><path d="M74.54,112.81v-4.26h.94l1.16,1.82a12.15,12.15,0,0,1,.76,1.41h0c0-.56-.08-1.14-.08-1.83v-1.4h.8v4.26h-.88L76.09,111a15.28,15.28,0,0,1-.79-1.43h0c0,.54,0,1.11,0,1.87v1.42Z" transform="translate(-4.89 -6.72)" style="fill:#221714"/><path d="M81.68,108.55v1.72h1.83v-1.72h.88v4.26h-.88v-1.88H81.68v1.88h-.87v-4.26Z" transform="translate(-4.89 -6.72)" style="fill:#221714"/><path d="M89.45,110.63a2,2,0,0,1-2.13,2.24,2,2,0,0,1-2.06-2.17,2.06,2.06,0,0,1,2.13-2.21A2,2,0,0,1,89.45,110.63Zm-3.27.06c0,.89.42,1.57,1.18,1.57s1.17-.72,1.17-1.6-.37-1.56-1.17-1.56S86.18,109.81,86.18,110.69Z" transform="translate(-4.89 -6.72)" style="fill:#221714"/><path d="M90.28,112a2.56,2.56,0,0,0,1.07.24c.56,0,.86-.24.86-.58s-.25-.52-.81-.73c-.74-.27-1.23-.66-1.23-1.22s.64-1.22,1.67-1.22a2.7,2.7,0,0,1,1.07.2l-.2.61a2.05,2.05,0,0,0-.88-.19c-.54,0-.78.27-.78.52s.26.48.88.71c.8.31,1.17.69,1.17,1.26s-.62,1.27-1.79,1.27a2.84,2.84,0,0,1-1.21-.25Z" transform="translate(-4.89 -6.72)" style="fill:#221714"/><path d="M94,108.61a7.9,7.9,0,0,1,1.26-.09,2.35,2.35,0,0,1,1.4.34,1.13,1.13,0,0,1,.46.93,1.24,1.24,0,0,1-.41,1,2.23,2.23,0,0,1-1.46.45l-.38,0v1.62H94Zm.87,2a1.9,1.9,0,0,0,.37,0c.63,0,1-.29,1-.79s-.33-.73-.93-.73a2.15,2.15,0,0,0-.45,0Z" transform="translate(-4.89 -6.72)" style="fill:#221714"/><path d="M98.83,108.55v4.26H98v-4.26Z" transform="translate(-4.89 -6.72)" style="fill:#221714"/><path d="M100.79,109.19H99.53v-.64H103v.64h-1.28v3.62h-.88Z" transform="translate(-4.89 -6.72)" style="fill:#221714"/><path d="M104.08,111.63l-.38,1.18h-.89l1.46-4.26h1.09l1.44,4.26h-.92l-.39-1.18Zm1.28-.57-.34-1c-.08-.27-.16-.59-.23-.86h0c-.07.27-.14.6-.22.85l-.34,1Z" transform="translate(-4.89 -6.72)" style="fill:#221714"/><path d="M107.59,108.55h.88v3.63h1.83v.63h-2.71Z" transform="translate(-4.89 -6.72)" style="fill:#221714"/></svg>