<svg id="f858911a-3212-48e4-ad17-a844199f286a" data-name="圖層 1" xmlns="http://www.w3.org/2000/svg" viewBox="0 0 122.58 22.39"><path d="M22.05,15.27c.78,0,1.66,0,2.54,0h.11c.1,0,.12,0,.13.13,0,.45.07.89.09,1.34s0,.61,0,.92c0,.48-.12,1-.19,1.45a5.23,5.23,0,0,1-1,2.3,7.12,7.12,0,0,1-2.39,2.11,8,8,0,0,1-2.15.83,7,7,0,0,1-1.37.16,5.55,5.55,0,0,1-2.24-.39,5.09,5.09,0,0,1-1.49-.92s-.07-.05-.12,0a6.66,6.66,0,0,1-2.64,1.16,7.11,7.11,0,0,1-1,.13,6.33,6.33,0,0,1-3.2-.7,5.18,5.18,0,0,1-2.24-2.18,10.59,10.59,0,0,1-.93-2.16,8.81,8.81,0,0,1-.33-1.76,9.37,9.37,0,0,1,.7-4.41,13.44,13.44,0,0,1,2-3.33c.38-.47.78-.91,1.2-1.34A20.63,20.63,0,0,1,9.75,6.69,23,23,0,0,1,13,4.61a7.88,7.88,0,0,0,1.45-1.05c.48-.42.94-.86,1.43-1.27a.11.11,0,0,1,.18,0A14.13,14.13,0,0,0,17.87,3.7c.86.59,1.74,1.13,2.6,1.71l.41.28s.05,0,0,.1a9.68,9.68,0,0,0-.45,1.68c-.07.41-.12.82-.17,1.24,0,.1,0,.19,0,.29s0,.07-.07,0L19.6,8.6c-.57-.38-1.16-.72-1.75-1l-1.63-.92s-.08,0-.14,0c-1.08.74-2.16,1.46-3.2,2.25a18.23,18.23,0,0,0-1.82,1.58,15.12,15.12,0,0,0-2.43,3.19c-.3.53-.58,1.06-.83,1.62a3,3,0,0,0-.21,1,5.16,5.16,0,0,0,.51,2.65,3.49,3.49,0,0,0,1.38,1.56,2.5,2.5,0,0,0,1.56.32,4.38,4.38,0,0,0,2-.82A10,10,0,0,0,14.15,19c0-.05.06-.06.09,0a2.9,2.9,0,0,0,2.27,2.12A3.73,3.73,0,0,0,20.25,20a3.51,3.51,0,0,0,.92-1.84,8.65,8.65,0,0,0,.14-1.76c0-.36,0-.71-.06-1.06,0-.09,0-.09.09-.09Z" transform="translate(-3.56 -2.16)" style="fill:#979694"/><path d="M31.87,7.77A2.72,2.72,0,0,0,31.53,7a2.82,2.82,0,0,0-1.6-1.17,3.91,3.91,0,0,0-3.7.73,3.39,3.39,0,0,0-1.07,1.54A6.11,6.11,0,0,0,25,9a9.08,9.08,0,0,0-.15,2c0,.14,0,.29,0,.43s0,.07-.08.07H23.51l-2.09,0c-.07,0-.1,0-.1-.1a10.69,10.69,0,0,1,0-2.19c.07-.62.15-1.23.27-1.84a5.45,5.45,0,0,1,.81-1.94A7.25,7.25,0,0,1,25.08,3a7.13,7.13,0,0,1,2.37-.79,5.29,5.29,0,0,1,4,.95,4.57,4.57,0,0,1,.36.29.09.09,0,0,0,.13,0,6.5,6.5,0,0,1,1.81-.94,6.38,6.38,0,0,1,1.73-.33,6.54,6.54,0,0,1,3.42.74A5.45,5.45,0,0,1,41,4.78a10.14,10.14,0,0,1,.93,1.67,7.62,7.62,0,0,1,.54,2,7.69,7.69,0,0,1,.05,1.73,9.92,9.92,0,0,1-.69,2.89,14.48,14.48,0,0,1-2.29,3.86,20.65,20.65,0,0,1-5.84,5c-.35.2-.72.38-1.05.61a11.57,11.57,0,0,0-1.17.95c-.4.36-.79.72-1.2,1.06a.08.08,0,0,1-.12,0,17.64,17.64,0,0,0-2.6-2c-.76-.49-1.52-1-2.26-1.48a.1.1,0,0,1-.05-.13,12.78,12.78,0,0,0,.49-2.12c.06-.41.09-.82.11-1.22,0,0,0,0,0-.06l.37.28a29,29,0,0,0,2.53,1.59l1.26.73c.05,0,.08,0,.13,0,1-.67,2-1.33,2.9-2a18,18,0,0,0,2.19-1.9A15.65,15.65,0,0,0,37.6,13c.27-.47.51-1,.75-1.45a3.37,3.37,0,0,0,.27-1.6,5.25,5.25,0,0,0-.41-1.79,4.1,4.1,0,0,0-1.33-1.75,2.62,2.62,0,0,0-1.77-.51,3.72,3.72,0,0,0-1.65.55A7.58,7.58,0,0,0,32,7.61Z" transform="translate(-3.56 -2.16)" style="fill:#dd755d"/><path d="M19.36,11.65H21c.07,0,.1,0,.1.1v3.33c0,.08,0,.1-.09.1H17.68c-.09,0-.1,0-.1-.1V11.74c0-.08,0-.1.1-.1Z" transform="translate(-3.56 -2.16)" style="fill:#dd755d"/><path d="M26.74,15.17H25.05c-.08,0-.1,0-.1-.1q0-1.66,0-3.33c0-.08,0-.1.1-.1h3.36c.08,0,.1,0,.1.1v3.33c0,.08,0,.1-.1.1Z" transform="translate(-3.56 -2.16)" style="fill:#979694"/><text transform="translate(41.19 4.78) scale(0.84 0.89)" style="font-size:5.430200099945068px;fill:#231815;font-family:jf-openhuninn-1.1">戴德森醫療財團法人</text><text transform="translate(39.96 15.01) scale(0.84 0.72)" style="font-size:14px;fill:#231815;font-family:jf-openhuninn-1.1">嘉義基督教醫院</text><path d="M47.64,23.88a3.1,3.1,0,0,1-1,.15,1.88,1.88,0,0,1-2.11-1.94,2,2,0,0,1,2.22-2,2.39,2.39,0,0,1,1,.15l-.16.55a2.07,2.07,0,0,0-.75-.13,1.32,1.32,0,0,0-1.42,1.43,1.29,1.29,0,0,0,1.41,1.4,2.39,2.39,0,0,0,.77-.12Z" transform="translate(-3.56 -2.16)" style="fill:#231815"/><path d="M49,20.1v1.57h1.67V20.1h.8V24h-.8V22.27H49V24h-.79V20.1Z" transform="translate(-3.56 -2.16)" style="fill:#231815"/><path d="M53.24,20.1V24h-.8V20.1Z" transform="translate(-3.56 -2.16)" style="fill:#231815"/><path d="M55.09,22.91,54.75,24h-.82l1.33-3.88h1L57.57,24h-.84l-.36-1.07Zm1.16-.52-.3-.94c-.08-.24-.15-.53-.22-.77h0c-.06.24-.13.54-.2.77l-.31.94Z" transform="translate(-3.56 -2.16)" style="fill:#231815"/><path d="M59.63,22.2v.48H58V22.2Z" transform="translate(-3.56 -2.16)" style="fill:#231815"/><path d="M61,24v-1.6l-1.3-2.28h.89l.49,1c.13.28.25.52.36.79h0c.1-.26.22-.51.36-.8l.48-1h.88l-1.37,2.26V24Z" transform="translate(-3.56 -2.16)" style="fill:#231815"/><path d="M64.46,20.1V24h-.8V20.1Z" transform="translate(-3.56 -2.16)" style="fill:#231815"/><path d="M69.8,23.88a3,3,0,0,1-1,.15,1.89,1.89,0,0,1-2.12-1.94,2,2,0,0,1,2.23-2,2.47,2.47,0,0,1,1,.15l-.17.55a2.07,2.07,0,0,0-.75-.13,1.32,1.32,0,0,0-1.42,1.43,1.29,1.29,0,0,0,1.41,1.4,2.35,2.35,0,0,0,.77-.12Z" transform="translate(-3.56 -2.16)" style="fill:#231815"/><path d="M71.36,20.1v1.57H73V20.1h.8V24H73V22.27H71.36V24h-.8V20.1Z" transform="translate(-3.56 -2.16)" style="fill:#231815"/><path d="M74.84,20.15A9,9,0,0,1,76,20.07a2.2,2.2,0,0,1,1.32.31.91.91,0,0,1,.37.78,1,1,0,0,1-.79,1v0a1,1,0,0,1,.62.77A7.76,7.76,0,0,0,77.84,24H77a4.29,4.29,0,0,1-.28-.92c-.12-.51-.32-.67-.76-.68h-.34V24h-.8Zm.8,1.72H76c.52,0,.84-.26.84-.65s-.29-.62-.81-.63a1.79,1.79,0,0,0-.43,0Z" transform="translate(-3.56 -2.16)" style="fill:#231815"/><path d="M79.34,20.1V24h-.8V20.1Z" transform="translate(-3.56 -2.16)" style="fill:#231815"/><path d="M80.32,23.24a2.32,2.32,0,0,0,1,.22c.5,0,.78-.22.78-.53s-.22-.47-.74-.66c-.68-.25-1.12-.6-1.12-1.12s.58-1.1,1.53-1.1a2.42,2.42,0,0,1,1,.17l-.17.56a2,2,0,0,0-.81-.17c-.49,0-.71.24-.71.47s.24.44.81.65c.72.28,1.06.63,1.06,1.14S82.33,24,81.26,24a2.82,2.82,0,0,1-1.11-.22Z" transform="translate(-3.56 -2.16)" style="fill:#231815"/><path d="M84.46,20.69H83.3V20.1h3.12v.59H85.25V24h-.79Z" transform="translate(-3.56 -2.16)" style="fill:#231815"/><path d="M87.84,20.1V24h-.79V20.1Z" transform="translate(-3.56 -2.16)" style="fill:#231815"/><path d="M89.7,22.91,89.35,24h-.81l1.32-3.88h1L92.17,24h-.83L91,22.91Zm1.16-.52-.31-.94c-.08-.24-.15-.53-.21-.77h0c-.06.24-.13.54-.2.77l-.3.94Z" transform="translate(-3.56 -2.16)" style="fill:#231815"/><path d="M92.89,24V20.1h.87l1,1.66a11.56,11.56,0,0,1,.7,1.28h0c0-.51-.07-1-.07-1.66V20.1h.73V24h-.81l-1.06-1.69A13.94,13.94,0,0,1,93.59,21h0c0,.49.05,1,.05,1.7V24Z" transform="translate(-3.56 -2.16)" style="fill:#231815"/><path d="M99.4,20.1v1.57h1.67V20.1h.8V24h-.8V22.27H99.4V24h-.79V20.1Z" transform="translate(-3.56 -2.16)" style="fill:#231815"/><path d="M106.48,22a1.85,1.85,0,0,1-1.94,2,1.82,1.82,0,0,1-1.88-2,1.89,1.89,0,0,1,1.94-2A1.81,1.81,0,0,1,106.48,22Zm-3,.05c0,.81.38,1.43,1.08,1.43s1.06-.66,1.06-1.46-.34-1.42-1.06-1.42S103.5,21.25,103.5,22.05Z" transform="translate(-3.56 -2.16)" style="fill:#231815"/><path d="M107.23,23.24a2.32,2.32,0,0,0,1,.22c.5,0,.78-.22.78-.53s-.22-.47-.74-.66c-.67-.25-1.12-.6-1.12-1.12s.58-1.1,1.53-1.1a2.52,2.52,0,0,1,1,.17l-.18.56a2,2,0,0,0-.81-.17c-.49,0-.7.24-.7.47s.23.44.8.65c.72.28,1.06.63,1.06,1.14S109.24,24,108.17,24a2.72,2.72,0,0,1-1.1-.22Z" transform="translate(-3.56 -2.16)" style="fill:#231815"/><path d="M110.6,20.15a8,8,0,0,1,1.15-.08,2.1,2.1,0,0,1,1.27.31,1,1,0,0,1,.43.85,1.12,1.12,0,0,1-.38.88,2,2,0,0,1-1.33.41,1.72,1.72,0,0,1-.34,0V24h-.8Zm.8,1.81a1.48,1.48,0,0,0,.33,0c.58,0,.92-.27.92-.72s-.29-.66-.84-.66a1.94,1.94,0,0,0-.41,0Z" transform="translate(-3.56 -2.16)" style="fill:#231815"/><path d="M115,20.1V24h-.79V20.1Z" transform="translate(-3.56 -2.16)" style="fill:#231815"/><path d="M116.81,20.69h-1.15V20.1h3.11v.59h-1.16V24h-.8Z" transform="translate(-3.56 -2.16)" style="fill:#231815"/><path d="M119.8,22.91,119.46,24h-.81L120,20.1h1L122.28,24h-.83l-.36-1.07Zm1.17-.52-.31-.94c-.08-.24-.15-.53-.21-.77h0c-.06.24-.13.54-.2.77l-.31.94Z" transform="translate(-3.56 -2.16)" style="fill:#231815"/><path d="M123,20.1h.8v3.31h1.67V24H123Z" transform="translate(-3.56 -2.16)" style="fill:#231815"/></svg>